<svg id="Lager_1" data-name="Lager 1" xmlns="http://www.w3.org/2000/svg" viewBox="0 0 319.9 62.52"><defs><style>.cls-1{fill:#1d1d1b;}</style></defs><title>logo_black</title><path class="cls-1" d="M150.4,27.1a8.59,8.59,0,0,0-7.5-4.7c-4.3,0-8,3-8,7.4,0,5,4.6,6.7,8.6,8.1,2.9,1,5.7,2.2,5.7,5.8a6.53,6.53,0,0,1-6.6,6.6c-3.9,0-6.2-2.5-7.3-6l-2.8.9a10.11,10.11,0,0,0,10.1,7.7c5.3,0,9.5-3.7,9.5-9.1,0-10.6-14.3-7.2-14.3-14.2,0-2.5,2.5-4.6,5.1-4.6a5.5,5.5,0,0,1,5.1,3.3Zm5.4-4.1h-2.9L166,54l10.3-25.3L186.7,54,200,23h-3L186.9,47,176.5,21.4,166.1,47Zm72.5,15c0-8.4-5.2-15.6-14.1-15.6-8.6,0-14.2,7-14.2,15.2s5.5,15.3,14.2,15.3A14.19,14.19,0,0,0,227.3,45l-2.4-1.4c-2.1,3.9-5.7,6.7-10.3,6.7-6.8,0-11.9-5-11.7-12.4h25.4Zm-25.5-2.7a11.36,11.36,0,0,1,22.6,0Zm42.9,15c-7.1,0-11.6-6.1-11.6-12.8,0-6.4,4.6-12.4,11.4-12.4,7.1,0,11.8,5.3,11.8,12.1,0,7-4.1,13.1-11.6,13.1m11.4,2.1H260V0h-2.9V28.1H257a13.49,13.49,0,0,0-11.3-5.7c-8.8,0-14.3,6.5-14.3,15.1S237,53,245.9,53c4.3,0,9-2.2,11.2-5.9h.1v5.3ZM293.6,38c.1-8.4-5.2-15.6-14.1-15.6-8.6,0-14.2,7-14.2,15.2s5.5,15.3,14.2,15.3A14.19,14.19,0,0,0,292.6,45l-2.4-1.4c-2.1,3.9-5.8,6.7-10.4,6.7-6.8,0-11.9-5-11.7-12.4h25.5Zm-25.4-2.7a11.36,11.36,0,0,1,22.6,0ZM301.5,23h-2.8V52.3h2.8V37.9c0-6,1.2-12.8,8.6-12.8,6.4,0,7,4.3,7,9.6V52.4h2.8V34.7c0-7.6-2.1-12.3-9.7-12.3a9.67,9.67,0,0,0-8.7,5.2h-.1V23Z"/><path class="cls-1" d="M2.9,23H0L13.2,54,23.5,28.7,33.8,54,47.1,23H44.2L34,47.1l-9.8-24-1.3.1-9.7,24Zm58.5,2.1c7.1,0,11.8,5.3,11.8,12.1,0,7-4.1,13.1-11.6,13.1C54.5,50.3,50,44.2,50,37.5c0-6.3,4.7-12.4,11.4-12.4M75.8,23H73v5.1h-.1a13.49,13.49,0,0,0-11.3-5.7c-8.8,0-14.3,6.5-14.3,15.1S52.9,53,61.8,53c4.3,0,9-2.2,11.2-5.9h0v5.3h2.9V23Zm19.9-6.6s-4.8-2.4-9.2-.5a7.5,7.5,0,0,0-4.7,7.4c.1,5.9,2.7,9.1,5.2,15.4,2.3,5.8,2.9,9,2.8,13.3-.1,3.7-3.2,6.2-5.8,7.6a60.13,60.13,0,0,1-8.7,2.9s8,.5,13.6-3.2c2.5-1.7,5.1-4.4,5.1-8.4,0-3.5-.2-6.2-2.6-12.2-1.8-4.4-5.6-9.8-5.5-15.3.1-3.4,1.3-4.7,3.6-6.1s6.2-.9,6.2-.9m16.2,8.7c7.1,0,11.8,5.3,11.8,12.1,0,7-4.1,13.1-11.6,13.1-7.1,0-11.6-6.1-11.6-12.8,0-6.3,4.7-12.4,11.4-12.4M126.3,23h-2.9v5.1h-.1A13.49,13.49,0,0,0,112,22.4c-8.8,0-14.3,6.5-14.3,15.1S103.3,53,112.2,53c4.3,0,9-2.2,11.2-5.9h.1v5.3h2.9V23Z"/></svg>